<svg xmlns="http://www.w3.org/2000/svg" id="Payoff__x3D__outline" viewBox="0 0 935.4 566.9"><defs><style>      .st0 {        fill: #009fe3;      }      .st1 {        fill: #004c7d;      }    </style></defs><path class="st0" d="M193.6,495.9s1.2.1.7.6c-1.2.8-3.3,1.9-3.9,2.2-.1,0-.6.2-1.1.3-4.6.3-61.7,1-69.5,1s-1.1.1-1.5.3c-5.4,3.1-46.6,26.5-48.8,18-.4-3.8,4.2-10.1,6.1-12.8.3-5.3,16.4-12.4,18.5-13.3,0,0,.2-.3.2-.4,0-.2-12.3-28.1-12.3-28.1v-.4c1.3-1.2,3.1-1.8,3.9-2,.3-.1.6,0,.8,0,3.1,2.2,25.7,19,28.1,20.6.2.1.4,0,.4,0l34.2-17.7s.2-.1,0-.3c-1-1.3-7.6-8.2-7.7-8.4-.1-.1-.1-.4.1-.6,1-.5,3.3-1.6,3.8-1.8.3-.1.5-.2.9,0,1.6.5,6.7,2.1,7.9,2.5h.1c.5-1.5,6.8-21.4,7.8-24.5,0-.3.3-.5.6-.6,1.1-.6,4.2-2.1,4.2-2.1,0,0,1-.5,1,.3v31c0,.3.1.5.4.6,2.6.9,17,5.7,17.1,5.8.1,0,.4.2,0,.5-.2.2-2.7,1.4-3.7,1.8-.3.1-1.2.3-1.6.3-2.9,0-15.9-.1-17.6-.2h-.3s-25.7,19.4-26.5,20.1c-.5.4.1.5.1.5l57.4,6.9M217.5,151.1h-17.5c-1.1,0-2.3.5-2.9,1.4l-17.2,22.7c-.6.7-.7,1.5-.3,2.3.3.7,1.2,1.4,2.7,1.4h13.2c1,0,2-.4,2.7-1.1l21.5-22.7c1-1,.8-1.9.6-2.4-.3-.7-1.2-1.5-2.7-1.5h-.1ZM111,152.5c-.6-.8-1.7-1.4-2.9-1.4h-17.5c-1.5,0-2.4.8-2.7,1.5-.2.5-.4,1.4.6,2.4l21.5,22.7c.7.7,1.7,1.1,2.7,1.1h13.2c1.4,0,2.3-.7,2.7-1.4s.3-1.5-.3-2.3l-17.2-22.7h0ZM369.7,279.6c0,28.1-20.2,48.6-54,70.8-30.4,20-117.6,71.2-130.1,79.1-2,1.3-1.7,3.1-1.7,3.1,0,0-.1,11.9-.1,12.7s.2,2.8,2.1,1.6c13.6-8.8,153-84.3,184.9-111.8,22.7-20.3,28.1-35.8,28.1-57.4,0-55.5-59-107.3-141.3-120.8-4.2-.7-6.4-.2-8.4.8-3.9,1.8-28.1,17.1-28.8,17.5-2.9,1.9-2.7,4.1,1.2,4.4,81.3,6.4,148.2,48.6,148.1,100M197.4,190.6c-.5-.7-1.3-1.1-2.2-1.1h-82.3c-.9,0-1.7.4-2.2,1.1-.5.7-.6,1.6-.4,2.5l3.1,9.1c.4,1.1,1.4,1.8,2.6,1.8h76.1c1.2,0,2.2-.7,2.6-1.8l3.1-9.1c.3-.8.2-1.7-.4-2.5h0ZM176.3,142.4l-16.4-24.2c-.4-.6-.8-1-1.3-1.5,3.5-1.7,6-5.3,6-9.5s-4.8-10.6-10.6-10.6-10.6,4.8-10.6,10.6,2.5,7.9,6.1,9.6c-.4.4-.9.9-1.2,1.4l-16.4,24.2c-1.7,2.5-1.7,5.9,0,8.4l16.4,24.2c1.4,2.1,3.5,3.3,5.8,3.3s4.4-1.2,5.8-3.3l16.4-24.2c1.7-2.5,1.7-5.9,0-8.4Z"></path><path class="st1" d="M264.3,78c-1.1.6-1.9,1.8-2.3,3.4l-4.5-7.2s-1.2-1.6.3-1.8c1.5-.2,31.1-2.4,31.1-2.4l51.3-26.5s13.9-5.5,15.7-2.1c1.4,2.8-4.3,10.1-7.5,13.1-3.2,3.1-47.3,33.8-47.3,33.8,0,0-14.2,27.5-14.6,28.3-.4.7-1.3.3-1.5,0-.2-.2-5.5-8.4-5.5-8.4,2.2-3.6,1.7-11.1-1.4-18.5-3.8-8.8-9.9-14.1-13.7-11.7M269.1,95.3c-2.4-5.7-6.4-9.1-9-7.5s-2.8,7.5-.4,13.3c2.4,5.7,6.4,9.1,9,7.5s2.8-7.6.4-13.3M210.9,365.3c-81.3-6.4-148.2-48.6-148.1-100,0-20,10.3-36.1,28.3-51.7,0,0,1.3-1.7,1.3-2.8v-19.7c0-1.2-1.4-2-2.4-1.3-12.2,7.9-22.1,14.8-28.2,20.1-22.7,20.3-28.1,35.8-28.1,57.4,0,55.5,59,107.3,141.3,120.8,4.2.7,6.4.2,8.4-.8,3.9-1.8,28.1-17.1,28.8-17.5,2.9-1.9,2.7-4.1-1.2-4.4h-.1ZM248.8,99.6c0-.8-.2-2.8-2.1-1.6-5.2,3.4-29.2,16.7-58.5,33.3-1,.6-.6,2.1.6,2.1h26.3c1,0,2.1-.3,3-.8,14.1-8.4,25-15,28.9-17.4,2-1.3,1.7-3.1,1.7-3.1,0,0,.1-11.9.1-12.7,0,0,0,.2,0,.2ZM183.7,318.1c-12.7,0-16.6-4.2-16.6-16.9v-29.1c0-11.2-3.8-16.1-13.4-16.1s-12.8,5.6-12.8,15.7v46.5h-9.6c-12.2,0-19-4.8-19-16.9v-67.9h10.1c6.5,0,11.3,1.6,14.3,5,.9-.2,10.2-5,17.8-5.6,29.3-2.1,41.3,15.5,41.3,40.1v45.2h-12.1M259.2,306.1c0,10.1-9.6,13.3-18.7,13.3-15.2,0-28.4-9.1-28.4-28.7v-84.2h10.1c12.5,0,18.5,5.7,18.5,19.8v60.2c0,7.4,4.1,9.7,12.1,9.7h6.3v10M318.5,256.6c-3.6-1.4-6.3-1.7-10.1-1.7-6.9,0-12.4,3.5-12.4,13.6v49.6h-7.8c-12.4,0-19.9-5.7-19.9-19.6v-36c0-16.7,11.3-30,30.2-30s21,5.9,21,13.6v10.6h-1Z"></path><path class="st1" d="M454.1,393.4c-2.1,0-3.8-1.7-3.8-3.8v-233c0-2.1,1.7-3.8,3.8-3.8s3.8,1.7,3.8,3.8v233c0,2.1-1.7,3.8-3.8,3.8Z"></path><path class="st1" d="M533,220.1c-4,0-6.1-2.3-6.4-4.6-.4-3.2-.8-5.6-1.3-7.6h-19.1c-1,4.1-1.8,8.2-2.5,12.3h-3.7c-3.2,0-4.4-1.7-4.4-4.6,0-6.9,9-35.1,16.3-43.3h3.9c3.9,0,6.4,2.1,7.8,4.4,4.3,7.8,11.6,28.3,13.4,43.4h-4ZM515.7,181c-2.8,5-5.8,12.6-7.4,19.3h14.8c-1.6-6.7-4.9-14.8-7.4-19.3ZM569.4,194.5c-1.3-2.2-4.8-3.9-10.2-3.9s-10.4,4.4-10.3,10c0,12,10.4,11.6,10.4,11.6,6.3,0,8.6-1.8,9.9-3.5h.3v4.3c0,4.6-4.4,7.8-11.2,7.8-10.4,0-19.3-8.1-19.3-18.8s7.5-20,20.4-20c0,0,9.9-.2,10.3,8.1v4.4h-.4,0ZM617.9,205.3c.7,4.8,5,7.8,10.6,7.8s8.5-.8,11.6-3.6h.4v2.9c0,4.8-3.3,8.5-13.7,8.5s-18.6-7.4-18.6-19,7.7-20.5,18.5-20.5c0,0,14.5,0,15.1,14.6,0,0,1.7,10.3-17.7,9.2h-6.2,0ZM625.9,189.3c-4.6,0-7.7,3.7-7.9,8.1v1.3h4.1c8.9,0,10.9-1,10.9-3.6,0-3.8-2.7-5.8-7-5.8h0ZM660,220.5c-7.8,0-12-4.1-12-11.8v-39h2.7c4.7,0,6.7,2.7,6.7,6.3v31.8c0,3.8,2,5,6.4,5h2.5v2c0,4.1-2.2,5.7-6.3,5.7h0ZM728.8,191.5c-1.4-.6-3-1.1-5.5-1.1-4.2,0-6.5,2.3-6.5,8.1v21.7h-2.6c-4.2,0-6.9-2.1-6.9-6v-17.4c0-7.6,4-14.8,13.9-14.8,0,0,7.7-.3,8,6.2v3.3h-.4ZM748.8,220.8h-1.9c-9,0-15.1-5-15.1-12s4.9-11.8,18.8-11.8h3.3v-.5c0-5.3-2.5-7-8.1-7s-9.7,1.7-12.1,4.3h-.3v-3c0-4.2,3.9-9.3,13.8-9.3,0,0,16.1-1,15.9,16.9v8.8c0,8-5.8,13.3-14.2,13.6h-.1ZM753.8,203.7h-3.3c-7.1,0-9.2,1.7-9.2,4.8s2.4,4.7,6.5,4.7,6-2,6-5.8v-3.6h0ZM772.5,176.4c1.3-1.5,2.9-2.6,4.4-2.6h2.2v8.5h13.1v3.9c0,2-1.8,4.5-5.6,4.5h-7.5v14.8c0,4.9,2.2,6.8,6,6.8s5.3-.4,6.8-1.3h.3v3.4c0,3.9-2.8,6.3-8.3,6.3-9.5,0-14.1-5.2-14.1-14v-22.7c0-3.7.6-5.1,2.6-7.5h0ZM802,179.7c-3,0-5.5-2.5-5.5-5.5s2.5-5.5,5.5-5.5,5.5,2.5,5.5,5.5-2.5,5.5-5.5,5.5ZM808.6,220.5c-7.2,0-11.2-4.1-11.2-11.8v-25.6h2.7c4.2,0,6.7,2.2,6.7,7v17.6c0,3.8,1.6,5.1,5.7,5.1h1.8v1.9c0,4.1-1.6,5.8-5.6,5.8h-.1ZM849.2,220.1c-4.2,0-6.9-2.7-6.9-6.2v-15c0-6.4-2.8-9.2-7.6-9.2s-6.9,3.1-6.9,8.5v21.8h-2.8c-4,0-6.6-2.7-6.6-6.2v-16.3c0-8,5.3-16,17.1-16,0,0,16.1-.2,16.2,16.5v22.1h-2.6,0ZM892,197.6c-.6-16.9-15.3-16.1-15.3-16.1-13.8.2-19.1,10.2-19.1,19.1s6.5,15.3,15.7,15.3c0,0,7.2.4,9.5-5.6l.2,4.6s1.1,8.9-9.9,8.8c0,0-7.8.3-12-4h-.4v4.3s-.3,7.8,13.1,8.2c0,0,18.1.8,18.4-18.4l-.2-16.2h0ZM874.7,208c-4.5,0-7.6-3.2-7.6-8.1v-.5c0-5.7,3.7-9.8,8.6-9.7s6.9,2.8,6.9,8.8-3.4,9.5-7.9,9.5ZM556.9,295.1c-3.9,0-6.4-2.2-6.4-6.3v-15.4c0-6.2-3.4-8.6-7.5-8.6s-6.8,2.2-6.8,8.9v21.4h-3.1c-4.4,0-6.4-2.5-6.4-6.3v-44.1h2.9c4.5,0,6.7,2.5,6.7,6v10.8c1.4-2.2,4.6-5,8.2-5,9.7,0,15.5,5.8,15.5,16.5v22.1h-3.1ZM644,253.1c-1.5-.5-3.2-.8-5.5-.8-3.8,0-6.7,1.3-6.7,6.4v3.4h10.8v2.6c0,3.4-3.6,5.3-6.7,5.3h-4.1v25.2h-3.8c-3,0-5.7-2.3-5.7-5.6v-31.6c0-5.3,3.7-13.6,14.7-13.9,0,0,7.3,0,7.2,6v3M663.6,296c-9.3,0-16.7-6.2-16.7-17.2v-21.5h1.8c5.4,0,7.8,2.3,7.8,6.7v13.9c0,6.9,3.4,9.7,7.6,9.7s6.6-2.7,6.6-9.1v-21.2h1.7c5.5,0,7.8,2.3,7.8,6.7v14.1c0,11.8-5.6,17.6-16.2,17.9h-.4,0ZM515.6,331.5c11.3,0,17.9,9.1,17.9,19.1s-5.8,20.5-18.7,20.4-17.7-10.1-17.9-19,5.3-20.3,18.5-20.5h.2,0ZM514.8,339.9c-5.7,0-8,4.5-8.2,10.7s2.8,12.2,9.1,12,8.1-5.4,8.1-10.6-2.1-11.8-8.4-12.1h-.6,0ZM561.2,328.1c-1.5-.5-3.2-.8-5.5-.8-3.9,0-6.7,1.3-6.7,6.4v3.4h10.8v2.6c0,3.4-3.6,5.3-6.7,5.3h-4.1v25.2h-3.8c-3,0-5.7-2.3-5.7-5.6v-31.6c0-5.3,3.7-14.1,14.7-13.9,0,0,7.3,0,7.2,6v3M733.2,371c-6.9,0-12.1-3.6-12.1-7.4v-4.3h.3c2,1.9,6.9,3.6,11.3,3.6s6.9-1.3,6.9-4.1-1.3-3.2-7.8-4.1c-8-1.1-11.8-4.3-11.8-10s4.5-13.4,16-13.2,12,8.2,12,8.2v3.4h-.4c-2-2-6.2-3.5-10.7-3.5s-7.6,1.4-7.6,3.8,1.2,3.2,7.7,4.2c7.8,1.3,11.8,4.8,11.8,10.8s-3.1,12.2-15.2,12.6h-.4ZM773.8,371c-4.2,0-7.6-2.4-9.5-5.6v16.7h-2.9c-3.4,0-6.6-2.5-6.6-6.5v-22.8c0-12.5,5.4-21.3,18.7-21.3,0,0,16.5.1,17.4,18.7.4,9.4-4.4,20.4-16.6,20.8h-.5ZM772.2,339.8c-5.2,0-8.1,4.5-8.1,11s3.7,11.8,9.3,11.8,7.7-4.1,7.7-10.1c0-8.9-2.9-12.7-9-12.7h0ZM603.8,194.5c-1.3-2.2-4.8-3.9-10.2-3.9s-10.4,4.4-10.3,10c0,12,10.4,11.6,10.4,11.6,6.3,0,8.6-1.8,9.9-3.5h.3v4.3c0,4.6-4.4,7.8-11.2,7.8-10.4,0-19.3-8.1-19.3-18.8s7.5-20,20.4-20c0,0,9.9-.2,10.3,8.1v4.4h-.4,0ZM677.7,205.2c.7,4.8,5,7.8,10.6,7.8s8.5-.8,11.6-3.6h.4v2.9c0,4.8-3.3,8.5-13.7,8.5s-18.6-7.4-18.6-19,7.7-20.5,18.5-20.5c0,0,14.5,0,15.1,14.6,0,0,1.7,10.3-17.7,9.2h-6.2,0ZM685.7,189.2c-4.6,0-7.7,3.7-7.9,8.1v1.3h4.1c8.9,0,10.9-1,10.9-3.6,0-3.8-2.7-5.8-7-5.8h0ZM575.6,280.4c.7,4.8,5,7.8,10.6,7.8s8.5-.8,11.6-3.6h.4v2.9c0,4.8-3.3,8.5-13.7,8.5s-18.6-7.4-18.6-19,7.7-20.5,18.5-20.5c0,0,14.5,0,15.1,14.6,0,0,1.7,10.3-17.7,9.2h-6.2,0ZM583.6,264.4c-4.6,0-7.7,3.7-7.9,8.1v1.3h4.1c8.9,0,10.9-1,10.9-3.6,0-3.8-2.7-5.8-7-5.8h0ZM789.4,280.4c.7,4.8,5,7.8,10.6,7.8s8.5-.8,11.6-3.6h.4v2.9c0,4.8-3.3,8.5-13.7,8.5s-18.6-7.4-18.6-19,7.7-20.5,18.5-20.5c0,0,14.5,0,15.1,14.6,0,0,1.7,10.3-17.7,9.2h-6.2,0ZM797.4,264.4c-4.6,0-7.7,3.7-7.9,8.1v1.3h4.1c8.9,0,10.9-1,10.9-3.6,0-3.8-2.7-5.8-7-5.8h0ZM625.1,355.4c.7,4.8,5,7.8,10.6,7.8s8.5-.8,11.6-3.6h.4v2.9c0,4.8-3.3,8.5-13.7,8.5s-18.6-7.4-18.6-19,7.7-20.5,18.5-20.5c0,0,14.5,0,15.1,14.6,0,0,1.7,10.3-17.7,9.2h-6.2,0ZM633.1,339.4c-4.6,0-7.7,3.7-7.9,8.1v1.3h4.1c8.9,0,10.9-1,10.9-3.6,0-3.8-2.7-5.8-7-5.8h0ZM875.3,355.4c.7,4.8,5,7.8,10.6,7.8s8.5-.8,11.6-3.6h.4v2.9c0,4.8-3.3,8.5-13.7,8.5s-18.6-7.4-18.6-19,7.7-20.5,18.5-20.5c0,0,14.5,0,15.1,14.6,0,0,1.7,10.3-17.7,9.2h-6.2,0ZM883.3,339.4c-4.6,0-7.7,3.7-7.9,8.1v1.3h4.1c8.9,0,10.9-1,10.9-3.6,0-3.8-2.7-5.8-7-5.8h0ZM861.4,344.5c-1.3-2.2-4.8-3.9-10.2-3.9s-10.4,4.4-10.3,10c0,12,10.4,11.6,10.4,11.6,6.3,0,8.6-1.8,9.9-3.5h.3v4.3c0,4.6-4.4,7.8-11.2,7.8-10.4,0-19.3-8.1-19.3-18.8s7.5-20,20.4-20c0,0,9.9-.2,10.3,8.1v4.4h-.4,0ZM777,266.5c-1.4-.6-3-1.1-5.5-1.1-4.2,0-6.5,2.3-6.5,8.1v21.7h-2.6c-4.2,0-6.9-2.1-6.9-6v-17.4c0-7.6,4-14.8,13.9-14.8,0,0,7.7-.3,8,6.2v3.3h-.4ZM676.5,341.5c-1.4-.6-3-1.1-5.5-1.1-4.2,0-6.5,2.3-6.5,8.1v21.7h-2.6c-4.2,0-6.9-2.1-6.9-6v-17.4c0-7.6,4-14.8,13.9-14.8,0,0,7.7-.3,8,6.2v3.3h-.4ZM596.3,370.8h-1.9c-9,0-15.1-5-15.1-12s4.9-11.8,18.8-11.8h3.3v-.5c0-5.3-2.5-7-8.1-7s-9.7,1.7-12.1,4.3h-.3v-3c0-4.2,3.9-9.3,13.8-9.3,0,0,16.1-1,15.9,16.9v8.8c0,8-5.8,13.3-14.2,13.6h-.1ZM601.3,353.6h-3.3c-7.1,0-9.2,1.7-9.2,4.8s2.4,4.7,6.5,4.7,6-2,6-5.8v-3.6h0ZM501.7,251.4c1.3-1.5,2.9-2.6,4.4-2.6h2.2v8.5h13.1v3.9c0,2-1.8,4.5-5.6,4.5h-7.5v14.8c0,4.9,2.2,6.8,6,6.8s5.3-.4,6.8-1.3h.3v3.4c0,3.9-2.8,6.3-8.3,6.3-9.5,0-14.1-5.2-14.1-14v-22.7c0-3.7.6-5.1,2.6-7.5h0ZM690.6,251.3c1.3-1.5,2.9-2.6,4.4-2.6h2.2v8.5h13.1v3.9c0,2-1.8,4.5-5.6,4.5h-7.5v14.8c0,4.9,2.2,6.8,6,6.8s5.3-.4,6.8-1.3h.3v3.4c0,3.9-2.8,6.3-8.3,6.3-9.5,0-14.1-5.2-14.1-14v-22.7c0-3.7.6-5.1,2.6-7.5h0ZM731.5,296.1c-9.3,0-16.7-6.2-16.7-17.2v-21.5h1.8c5.4,0,7.8,2.3,7.8,6.7v13.9c0,6.9,3.4,9.7,7.6,9.7s6.6-2.7,6.6-9.1v-21.2h1.7c5.5,0,7.8,2.3,7.8,6.7v14.1c0,11.8-5.6,17.6-16.2,17.9h-.4,0ZM697.8,331.4c11.3,0,17.9,9.1,17.9,19.1s-5.8,20.5-18.7,20.4-17.7-10.1-17.9-19,5.3-20.3,18.5-20.5h.2ZM697,339.8c-5.7,0-8,4.5-8.2,10.7s2.8,12.2,9.1,12,8.1-5.4,8.1-10.6-2.1-11.8-8.4-12.1h-.6,0ZM811.9,370.7h-1.9c-9,0-15.1-5-15.1-12s4.9-11.8,18.8-11.8h3.3v-.5c0-5.3-2.5-7-8.1-7s-9.7,1.7-12.1,4.3h-.3v-3c0-4.2,3.9-9.3,13.8-9.3,0,0,16.1-1,15.9,16.9v8.8c0,8-5.8,13.3-14.2,13.6h-.1ZM816.9,353.6h-3.3c-7.1,0-9.2,1.7-9.2,4.8s2.4,4.7,6.5,4.7,6-2,6-5.8v-3.6h0Z"></path></svg>